<svg xmlns="http://www.w3.org/2000/svg" width="73.155" height="43.694" viewBox="0 0 73.155 43.694">
  <g id="Group_15" data-name="Group 15" transform="translate(126.776 -653.734)">
    <g id="Group_28" data-name="Group 28" transform="translate(-126.776 654.646)">
      <path id="Path_197" data-name="Path 197" d="M64.062,42a11.479,11.479,0,0,0-1.614.155l-6.385-18.4A2.252,2.252,0,0,0,53.985,22.3H49.52a2.154,2.154,0,0,0,0,4.307h2.924l1.538,4.387a4.412,4.412,0,0,1-.539-.317C48.21,28.213,40.67,28.829,37.977,32.9c-2,3-7.156,2.22-11.926,1.386-1.155-.232-1.462-2.22-2.693-2.617A52.836,52.836,0,0,0,8.216,30.234a1.237,1.237,0,0,0-.952,1.843l2.617,4.307a1.967,1.967,0,0,0,1.155.923l2.309.923,4.618,1.614a14.568,14.568,0,0,1,8.462,6.772l-2.537.923a11.469,11.469,0,1,0,1.694,5.925,12.628,12.628,0,0,0-.155-1.77l2.537-.923a15.256,15.256,0,0,1,.232,2.693,12.167,12.167,0,0,1-.317,2.924h22.39a12.167,12.167,0,0,1-.317-2.924A14.175,14.175,0,0,1,57.49,41l.847,2.537A11.552,11.552,0,1,0,64.034,42ZM21.2,53.468a7.156,7.156,0,1,1-7.156-7.156,7.035,7.035,0,0,1,5.617,2.769L13.291,51.39a2.17,2.17,0,0,0-1.307,2.769,2.147,2.147,0,0,0,2.078,1.462,3.388,3.388,0,0,0,.771-.155l6.385-2.309C21.128,53.312,21.2,53.388,21.2,53.468Zm42.858,7.156a7.143,7.143,0,0,1-4.307-12.849l2.22,6.385a2.147,2.147,0,0,0,2.078,1.462,2.246,2.246,0,0,0,.691-.155A2.084,2.084,0,0,0,66.051,52.7l-2.22-6.385h.155a7.191,7.191,0,0,1,7.156,7.156,7.076,7.076,0,0,1-7.08,7.156Z" transform="translate(-2.497 -22.298)" fill="#bcbcbc"/>
      <path id="Path_198" data-name="Path 198" d="M83.249,37.349h1.538a1.053,1.053,0,0,0,1.078-1.078V28.579A1.053,1.053,0,0,0,84.787,27.5h-1.77a4.958,4.958,0,0,0-4.926,5.462,5.151,5.151,0,0,0,5.157,4.387Z" transform="translate(-19.911 -23.494)" fill="#c23733"/>
    </g>
    <rect id="Rectangle_12" data-name="Rectangle 12" width="35.306" height="5.075" rx="0.8" transform="matrix(-0.326, -0.946, 0.946, -0.326, -67.314, 688.787)" fill="#c23733"/>
    <rect id="Rectangle_13" data-name="Rectangle 13" width="10.467" height="5.075" rx="0.8" transform="translate(-83.718 653.859)" fill="#c23733"/>
    <rect id="Rectangle_14" data-name="Rectangle 14" width="7" height="4" rx="0.5" transform="translate(-100 682)" fill="#c23733"/>
  </g>
</svg>
