<svg xmlns="http://www.w3.org/2000/svg" xmlns:xlink="http://www.w3.org/1999/xlink" width="54" height="54" viewBox="0 0 54 54">
  <defs>
    <clipPath id="clip-path">
      <rect id="Rectangle_155" data-name="Rectangle 155" width="54" height="54" transform="translate(-0.271)"/>
    </clipPath>
  </defs>
  <g id="Start_Type" data-name="Start Type" transform="translate(0.271)" clip-path="url(#clip-path)">
    <rect id="Rectangle_154" data-name="Rectangle 154" width="54" height="54" transform="translate(-0.271)" fill="#fff"/>
    <g id="Group_27" data-name="Group 27" transform="translate(1.128 4.474)">
      <path id="Path_193" data-name="Path 193" d="M-622.68,1840.457a4.079,4.079,0,0,0,.3-3.8c-.331-.814-.788-1.385-1.79-1.188a3.951,3.951,0,0,1-.779,0c-.237,0-.479-.047-.461.336.016.3-.253.239-.416.224-.224-.029-.631.163-.671-.17-.04-.465-.3-.383-.575-.383h-1.277c-.134,0-.275-.036-.385.105-.5.631-.693.633-1.146.013-.1-.139-.246-.119-.385-.119h-1.49c-.2,0-.365,0-.365.284,0,.447-.369.257-.582.268s-.535.154-.523-.251c0-.349-.21-.3-.418-.3h-1.421c-.224,0-.434-.025-.421.309s-.282.266-.448.244c-.224-.029-.591.2-.631-.224-.034-.355-.224-.345-.474-.34a11.892,11.892,0,0,1-1.277,0c-.423-.038-.553.131-.488.516.085.5-.116.658-.617.626-.707-.043-1.419,0-2.13,0-.781,0-1.566.018-2.342,0-.389-.013-.548.083-.53.508a18.492,18.492,0,0,1,0,2.2c-.04.564.179.671.685.653,1.466-.032,2.935,0,4.4-.018.371,0,.617.06.535.494-.11.571.172.689.671.629a6.483,6.483,0,0,1,.781,0c.329-.025.77.2.834-.434.023-.213,1.014-.159,1.025.062.027.47.327.372.591.374h1.277c.224,0,.409.022.418-.311,0-.391.347-.224.546-.224s.537-.154.553.224c.013.325.192.318.416.313h1.421c.224,0,.427.023.425-.311s.289-.248.474-.237.568-.15.6.179c.04.477.34.358.6.367.331,0,.671.013.993,0,.293-.011.658.154.7-.405.02-.255,1.031-.21,1.051.058.031.43.284.349.53.351a10.468,10.468,0,0,1,1.135,0A1.011,1.011,0,0,0-622.68,1840.457Z" transform="translate(644.427 -1835.427)" fill="#c23733"/>
      <path id="Path_194" data-name="Path 194" d="M-635.394,1836.331h2.748c.224,0,.342-.069.336-.32s-.157-.248-.329-.248h-2.747c-.188,0-.309.045-.3.275S-635.6,1836.333-635.394,1836.331Z" transform="translate(636.826 -1835.72)" fill="#c23733"/>
      <path id="Path_195" data-name="Path 195" d="M-457.991,1889.019a1.314,1.314,0,0,0-.964.451,1.312,1.312,0,0,0-.314,1.017c0,1.1,0,2.208,0,3.309,0,.282-.038.4-.36.387-.629-.029-1.262-.027-1.891,0-.3.014-.342-.1-.34-.362.013-1.146.018-2.293,0-3.439a3.8,3.8,0,0,0-2.908-3.814,7.747,7.747,0,0,0-2.437-.114,1.463,1.463,0,0,1-1.255-.539,7.229,7.229,0,0,0-1.763-1.567,4.04,4.04,0,0,0-1.846-.489c-.237,0-.277-.087-.275-.3.011-.671.016-1.342,0-2.014,0-.244.087-.277.3-.275h3.4a1.311,1.311,0,0,0,1.106-.379,1.311,1.311,0,0,0,.364-1.111,24.632,24.632,0,0,0-.052-2.877,3.726,3.726,0,0,0-3.09-3.286c-.058-.012-.11-.016-.123-.085H-482.14c-.043.137-.177.13-.277.163a3.85,3.85,0,0,0-2.817,3.814v2.365a1.3,1.3,0,0,0,.375,1.019,1.3,1.3,0,0,0,1.019.375h3.439c.264,0,.34.058.331.329-.022.657-.016,1.317,0,1.978,0,.223-.058.289-.284.286-1.018-.011-2.034,0-3.052,0a4.109,4.109,0,0,0-3.117,1.289c-.418.431-1,.79-1.222,1.3a4.9,4.9,0,0,0-.069,1.79q0,9.219,0,18.442a.849.849,0,0,0,.277.671c1.081,1.047,2.126,2.13,3.219,3.161a6.1,6.1,0,0,0,4.28,1.714q7.137.026,14.271,0a3.859,3.859,0,0,0,2.809-1.145,3.858,3.858,0,0,0,1.113-2.822q.018-1.719,0-3.439c0-.259.054-.342.327-.333.644.022,1.289.02,1.933,0,.262,0,.336.056.333.327-.018,1.132,0,2.264,0,3.4a1.307,1.307,0,0,0,.333,1.01,1.307,1.307,0,0,0,.974.428,1.3,1.3,0,0,0,.948-.437,1.306,1.306,0,0,0,.323-.992v-17.753a1.306,1.306,0,0,0-.33-1.025A1.306,1.306,0,0,0-457.991,1889.019Z" transform="translate(508.155 -1868.599)" fill="#bcbcbc"/>
      <path id="Path_196" data-name="Path 196" d="M-619.459,1887.134c-1.1.018-2.206,0-3.309,0a1.325,1.325,0,0,0-1.13.37,1.324,1.324,0,0,0-.378,1.127q0,2.323,0,4.642c0,.224-.043.329-.3.315-.385-.022-.774,0-1.159,0s-.855.163-1.065-.074c-.181-.2-.056-.671-.058-1.034a1.342,1.342,0,0,0-1.025-1.441,1.309,1.309,0,0,0-1.492.865c0,.023-.043.034-.065.05v.848c-.7-.711-1.4-1.418-2.128-2.1a2.512,2.512,0,0,1-.821-2.014c.027-4.568,0-9.139.025-13.708,0-.492-.119-.671-.626-.633a18.289,18.289,0,0,1-2.13,0c-.488-.027-.642.107-.64.62.02,4.712,0,9.423.016,14.135a5.027,5.027,0,0,0,1.528,3.7c1.025,1.018,2.027,2.058,3.072,3.056a1.385,1.385,0,0,1,.474,1.226,3.262,3.262,0,0,0,1.231,2.825v3.043a1.093,1.093,0,0,1,.092.132,1.31,1.31,0,0,0,1.466.785,1.311,1.311,0,0,0,1.022-1.354c0-.3.018-.6,0-.895-.02-.257.083-.3.315-.3.644.013,1.291.022,1.933,0,.3-.011.345.094.342.36-.011,1.566,0,3.132,0,4.685a1.3,1.3,0,0,0,.379,1.038,1.3,1.3,0,0,0,1.041.371h3.394c.286,0,.349-.08.349-.353q-.011-9.969,0-19.941C-619.11,1887.217-619.173,1887.13-619.459,1887.134Z" transform="translate(636.881 -1869.305)" fill="#c23733"/>
    </g>
  </g>
</svg>
