<svg xmlns="http://www.w3.org/2000/svg" width="37" height="50" viewBox="0 0 37 50">
  <g id="Group_13559" data-name="Group 13559" transform="translate(-7375 -163)">
    <path id="Subtraction_3" data-name="Subtraction 3" d="M34,50H3a3,3,0,0,1-3-3V3A3,3,0,0,1,3,0H34a3,3,0,0,1,3,3V47A3,3,0,0,1,34,50ZM2.946,14.238a.751.751,0,0,0-.75.751v2a.751.751,0,0,0,.75.75H22.982a.751.751,0,0,0,.75-.75v-2a.751.751,0,0,0-.75-.751Zm0-8.185A.751.751,0,0,0,2.2,6.8v2a.751.751,0,0,0,.75.75H31.057a.751.751,0,0,0,.751-.75v-2a.751.751,0,0,0-.751-.751Z" transform="translate(7375 163)" fill="#bcbcbc"/>
    <ellipse id="Ellipse_15" data-name="Ellipse 15" cx="8" cy="7.5" rx="8" ry="7.5" transform="translate(7392 185)" fill="#c23733"/>
    <path id="Subtraction_2" data-name="Subtraction 2" d="M0,6.158H0V.114a8.9,8.9,0,0,0,4.769,1.36A8.869,8.869,0,0,0,9.715,0V6.155L4.9,3.674Z" transform="translate(7395.268 201.709)" fill="#c23733"/>
  </g>
</svg>
