<svg xmlns="http://www.w3.org/2000/svg" xmlns:xlink="http://www.w3.org/1999/xlink" width="76" height="76" viewBox="0 0 76 76">
  <defs>
    <clipPath id="clip-path">
      <rect id="Rectangle_53" data-name="Rectangle 53" width="76" height="76" transform="translate(0.164 0.177)"/>
    </clipPath>
  </defs>
  <g id="DocumentationAssistance" transform="translate(-0.164 -0.177)" clip-path="url(#clip-path)">
    <g id="h1tbh2.tif" transform="translate(2.361 3.174)">
      <g id="Group_7" data-name="Group 7" transform="translate(0)">
        <path id="Path_79" data-name="Path 79" d="M516.424,569.855c.162,1.168.34,2.333.479,3.491a.819.819,0,0,0,.689.775,6.365,6.365,0,0,1,1.774.708,1.228,1.228,0,0,0,1.733-.19c.635-.537,1.323-.975,1.952-1.5.387-.317.635-.26.952.086.828.873,1.682,1.73,2.558,2.558.371.349.425.6.086,1.016-.619.752-1.162,1.568-1.771,2.327a.7.7,0,0,0-.083.952,7.475,7.475,0,0,1,.911,2.19.787.787,0,0,0,.8.654c.993.118,1.981.273,2.971.394.371.044.511.187.5.581q-.038,1.965,0,3.926c0,.394-.13.536-.5.584-.99.117-1.981.273-2.971.394a.787.787,0,0,0-.8.654,7.933,7.933,0,0,1-.952,2.26.616.616,0,0,0,.073.816c.635.784,1.181,1.615,1.815,2.387.336.413.286.663-.086,1.016-.879.825-1.73,1.682-2.558,2.558-.318.343-.565.4-.952.086-.775-.635-1.606-1.193-2.387-1.816a.66.66,0,0,0-.879-.079,7.822,7.822,0,0,1-2.19.917.831.831,0,0,0-.7.848c-.1.952-.27,1.93-.384,2.895-.048.394-.187.559-.635.546q-1.924-.048-3.85,0c-.432,0-.578-.146-.635-.543-.117-.952-.276-1.93-.384-2.895a.838.838,0,0,0-.7-.857,7.52,7.52,0,0,1-2.187-.918.66.66,0,0,0-.882.086c-.762.606-1.587,1.146-2.327,1.771-.444.375-.7.3-1.073-.092-.806-.86-1.644-1.695-2.5-2.5-.368-.346-.438-.594-.092-1.012.635-.749,1.162-1.568,1.771-2.323a.7.7,0,0,0,.086-.952,7.423,7.423,0,0,1-.914-2.19.787.787,0,0,0-.8-.657c-.99-.121-1.977-.286-2.971-.406-.368-.044-.514-.171-.508-.571q.038-1.961,0-3.926c0-.4.136-.527.508-.571.993-.121,1.977-.282,2.971-.406a.791.791,0,0,0,.8-.657,7.936,7.936,0,0,1,.952-2.26.616.616,0,0,0-.076-.816c-.635-.784-1.181-1.616-1.816-2.387-.346-.419-.276-.667.092-1.012.86-.809,1.7-1.644,2.5-2.5.368-.394.635-.47,1.073-.092.743.635,1.562,1.165,2.323,1.771a.66.66,0,0,0,.882.083,7.737,7.737,0,0,1,2.19-.917.8.8,0,0,0,.689-.778c.143-1.171.317-2.336.479-3.491ZM514,579.694a6.185,6.185,0,1,1,0,.016Z" transform="translate(-460.995 -569.855)" fill="#eaeff2"/>
        <path id="Path_80" data-name="Path 80" d="M463.346,636h-3.682v-4.926l6.3-.025h38.047c2.044,0,4.091.022,6.135.019q6.637,0,13.271-.025c2.333,0,4.666.032,7,0,.521,0,.717.1.7.667q-.067,1.8,0,3.615c.022.562-.171.689-.7.67-1-.038-2,0-3,0Z" transform="translate(-459.664 -571.947)" fill="#a87c50"/>
        <path id="Path_81" data-name="Path 81" d="M488.676,630.208H478.233v-.692a5.018,5.018,0,0,0-5.58-5.463c-.492,0-.594.165-.59.635.022,1.844,0,3.692,0,5.536h-6.009c-.178-.209-.454-.209-.682-.3a4.917,4.917,0,0,1-3.155-4.586q-.025-3.381,0-6.764a9.7,9.7,0,0,1,6.1-8.979c2.447-.971,4.942-1.822,7.418-2.727a3.72,3.72,0,1,0,7.44,0c2.425.882,4.863,1.724,7.272,2.651a9.78,9.78,0,0,1,6.246,9.033c.025,2.25,0,4.5,0,6.758h-4.932v-6.919c0-1.7,0-1.676-1.692-1.695-.6,0-.793.156-.784.775.035,2.612,0,5.228.016,7.843-.257,0-.511.019-.768.019-1.7,0-1.641,0-1.717,1.736a2.926,2.926,0,0,0,1.857,3.142Zm-19.07-9.839v-1.9c0-1.8,0-1.768-1.765-1.777-.609,0-.72.229-.711.768.029,1.612,0,3.225,0,4.837,0,1.9,0,1.873,1.879,1.812.5-.016.6-.213.59-.635-.006-1.066.006-2.088.006-3.114Z" transform="translate(-459.754 -571.101)" fill="#e46353"/>
        <path id="Path_82" data-name="Path 82" d="M524.992,630.264q-6.634,0-13.271.025c-2.044,0-4.091,0-6.135-.019.225-1.431.448-2.857.682-4.295q.8-4.857,1.616-9.713.679-4.066,1.368-8.129c6.031,0,12.061-.022,18.07,0a2.47,2.47,0,0,1,2.4,2.99c-.793,4.745-1.606,9.487-2.409,14.232a20.767,20.767,0,0,0-.317,2.114,2.984,2.984,0,0,1-2.006,2.793Zm-4.637-11.078a2.463,2.463,0,1,0-2.466,2.479,2.434,2.434,0,0,0,2.473-2.495Z" transform="translate(-461.238 -571.151)" fill="#d7d6d9"/>
        <path id="Path_83" data-name="Path 83" d="M527.508,638.719c0,1.489,0,2.974.032,4.463,0,.375-.127.511-.489.473a4.319,4.319,0,0,0-.46,0q-31.083,0-62.164.019c-.762,0-1.012-.159-.952-.952.083-1.327.038-2.663.044-4Z" transform="translate(-459.787 -572.21)" fill="#a87c50"/>
        <path id="Path_84" data-name="Path 84" d="M476.01,602.395a13.707,13.707,0,0,1-2.942-2.657,10.09,10.09,0,0,1-2-5.4c-.022-.317-.041-.524-.457-.635a2.441,2.441,0,0,1-2.012-2.682,2.539,2.539,0,0,1,2.457-2.222c.384,0,.768.028,1.152,0a2.539,2.539,0,0,0,2.539-2.539c.025-.587.032-1.181,0-1.768-.025-.457.1-.635.59-.635a7.618,7.618,0,0,1,2.92.53,13.2,13.2,0,0,0,6.948.47c1.841-.251,3.672-.594,5.507-.9q.029,4.336.057,8.668a12.773,12.773,0,0,1-.229,3.2,9.812,9.812,0,0,1-6.523,7.253c-.238.086-.508.1-.657.346a6.443,6.443,0,0,0-1.587.162,10.6,10.6,0,0,1-5.764-1.2Zm2.574-7.4a6.784,6.784,0,0,1-.749,0c-.533-.067-.67.175-.6.667a5.078,5.078,0,0,0,4.5,4.26A4.964,4.964,0,0,0,486.9,596.3c.34-1.27.318-1.3-1.025-1.3a2.188,2.188,0,0,1-.318,0c-.6-.082-.952.029-1.12.749a2.409,2.409,0,0,1-4.548.187c-.187-.949-.679-1.07-1.3-.949Zm7.323-6.158c-1.46.019-1.289-.178-1.3.971,0,1.492,0,1.492,1.006,1.492,1.454,0,1.454,0,1.454-1.047,0-1.425,0-1.425-1.162-1.425Zm-6.228,1.27c-.022-1.422.178-1.27-1.006-1.27-1.457,0-1.457,0-1.457,1.041,0,1.419,0,1.419,1.082,1.422,1.381-.016,1.381-.016,1.381-1.206Z" transform="translate(-459.972 -570.353)" fill="#fec377"/>
        <path id="Path_85" data-name="Path 85" d="M527.515,638.632h-64l-.038-2.454h64.078Z" transform="translate(-459.793 -572.119)" fill="#8a5e3c"/>
        <path id="Path_86" data-name="Path 86" d="M490.8,583.74c-1.835.317-3.663.635-5.507.9a13.2,13.2,0,0,1-6.948-.47,7.619,7.619,0,0,0-2.92-.53c-.492,0-.616.165-.59.635a17.289,17.289,0,0,1,0,1.768,2.539,2.539,0,0,1-2.539,2.539c-.381.016-.768,0-1.152,0v-5.92a4.923,4.923,0,0,1,5.187-5.148h13.763c.565,0,.8.089.778.733C490.806,580.055,490.819,581.9,490.8,583.74Z" transform="translate(-460.062 -570.101)" fill="#57565c"/>
        <path id="Path_87" data-name="Path 87" d="M509.08,608.143q-.686,4.063-1.368,8.129-.813,4.853-1.616,9.713c-.235,1.428-.457,2.857-.682,4.295h-4.932l.765-4.9c.317-1.755.635-3.51.924-5.266.511-2.99.974-5.99,1.53-8.97a3.574,3.574,0,0,1,3.771-3.022C508,608.124,508.541,608.136,509.08,608.143Z" transform="translate(-461.057 -571.171)" fill="#acabb1"/>
        <path id="Path_88" data-name="Path 88" d="M500.828,625.979l-.765,4.9h-10.5a2.93,2.93,0,0,1-1.841-3.174c.076-1.73.016-1.733,1.717-1.736.257,0,.511,0,.768-.019H497.6Z" transform="translate(-460.641 -571.766)" fill="#888890"/>
        <path id="Path_89" data-name="Path 89" d="M483.658,606.823a3.72,3.72,0,0,1-7.44,0l.051-1.27c.213.089.429.165.635.263a9.583,9.583,0,0,0,6.7.66Z" transform="translate(-460.23 -571.086)" fill="#fcc378"/>
        <path id="Path_90" data-name="Path 90" d="M483.609,606.4a9.584,9.584,0,0,1-6.7-.66c-.206-.1-.422-.175-.635-.263v-2.45a10.6,10.6,0,0,0,5.755,1.238,6.413,6.413,0,0,1,1.587-.162Q483.613,605.246,483.609,606.4Z" transform="translate(-460.229 -570.988)" fill="#feb555"/>
        <path id="Path_91" data-name="Path 91" d="M514.32,580.058a6.158,6.158,0,1,1-6.193,6.123,6.157,6.157,0,0,1,6.193-6.123Z" transform="translate(-461.319 -570.203)" fill="#d6d7d8"/>
        <path id="Path_92" data-name="Path 92" d="M472.409,630.869v-5.536c0-.454.1-.609.59-.635a5.018,5.018,0,0,1,5.58,5.463v.692Z" transform="translate(-460.094 -571.762)" fill="#fec377"/>
        <path id="Path_93" data-name="Path 93" d="M492.733,625.644h-2.46c0-2.612.019-5.228-.016-7.84,0-.619.184-.781.784-.775,1.692.022,1.692,0,1.692,1.695Z" transform="translate(-460.71 -571.466)" fill="#ce4531"/>
        <path id="Path_94" data-name="Path 94" d="M469.775,620.733v3.073c0,.438-.1.635-.59.635-1.879.06-1.879.079-1.879-1.812,0-1.612.019-3.225,0-4.837,0-.539.1-.771.711-.768,1.765,0,1.765-.019,1.765,1.777Z" transform="translate(-459.923 -571.475)" fill="#ce4531"/>
        <path id="Path_95" data-name="Path 95" d="M520.705,619.491a2.463,2.463,0,1,1-2.5-2.447,2.432,2.432,0,0,1,2.5,2.447Z" transform="translate(-461.582 -571.467)" fill="#e5e6e7"/>
        <path id="Path_96" data-name="Path 96" d="M478.882,595.361c.635-.121,1.117,0,1.314.933a2.409,2.409,0,0,0,4.548-.187c.165-.717.524-.828,1.121-.749a2.154,2.154,0,0,0,.318,0c1.346,0,1.368.025,1.025,1.3a4.964,4.964,0,0,1-5.164,3.621,5.079,5.079,0,0,1-4.5-4.259c-.063-.492.07-.733.6-.667a6.732,6.732,0,0,0,.74.007Z" transform="translate(-460.269 -570.727)" fill="#ed8701"/>
        <path id="Path_97" data-name="Path 97" d="M486.469,588.985c1.165,0,1.165,0,1.165,1.416,0,1.047,0,1.047-1.454,1.047-1.013,0-1.019,0-1.006-1.492C485.181,588.808,485.009,589,486.469,588.985Z" transform="translate(-460.534 -570.509)" fill="#ed8701"/>
        <path id="Path_98" data-name="Path 98" d="M479.984,590.253c0,1.2,0,1.2-1.384,1.2-1.082,0-1.082,0-1.082-1.422,0-1.044,0-1.054,1.457-1.041C480.162,589,479.962,588.831,479.984,590.253Z" transform="translate(-460.273 -570.51)" fill="#ed8701"/>
      </g>
    </g>
  </g>
</svg>
