<svg xmlns="http://www.w3.org/2000/svg" xmlns:xlink="http://www.w3.org/1999/xlink" width="76" height="76" viewBox="0 0 76 76">
  <defs>
    <clipPath id="clip-path">
      <rect id="Rectangle_55" data-name="Rectangle 55" width="76" height="76" transform="translate(0.246 0.177)"/>
    </clipPath>
  </defs>
  <g id="MulitpleFinance_Option" data-name="MulitpleFinance Option" transform="translate(-0.246 -0.177)" clip-path="url(#clip-path)">
    <g id="Group_10" data-name="Group 10" transform="translate(2.6 2.609)">
      <path id="Path_99" data-name="Path 99" d="M472.811,727.707a4.307,4.307,0,0,0,1.517-.653,18.733,18.733,0,0,1,4.977-1.9,14.253,14.253,0,0,1,8.081.857c4.317,1.727,8.627,3.463,12.95,5.171a6.4,6.4,0,0,1,4.314,6.237,9.845,9.845,0,0,1-1.082,3.558c-.121.279-.318.178-.524.1-3.882-1.5-7.773-2.98-11.646-4.507-.587-.232-.835-.19-1.032.445a25.642,25.642,0,0,1-1,2.587c-.19.435-.152.635.333.816,2.641.99,5.269,2.019,7.9,3.031,1.857.714,3.714,1.425,5.567,2.149a1.163,1.163,0,0,0,1.044-.067c1.339-.686,2.7-1.33,4.053-1.987v9.046a23.281,23.281,0,0,1-3.92,1.27,16.957,16.957,0,0,0-2.346.4h-4.174c-.092-.133-.235-.124-.371-.14a22.149,22.149,0,0,1-6.164-1.479c-4.859-1.955-9.7-3.965-14.559-5.92a31.359,31.359,0,0,0-3.933-1.514Z" transform="translate(-460.153 -683.023)" fill="#fed8b2"/>
      <path id="Path_100" data-name="Path 100" d="M472.29,727.69v17.521c0,1.368-.038,2.736,0,4.1,0,.521-.124.651-.635.635-4.012-.025-8.021,0-12.033,0V724.9h12.03c.521,0,.679.124.635.635C472.248,726.252,472.286,726.973,472.29,727.69Z" transform="translate(-459.622 -683.006)" fill="#e46353"/>
      <path id="Path_101" data-name="Path 101" d="M472.29,746.746v3.174a4.6,4.6,0,0,0,0,.743c0,.1-.124.117-.635.117H459.622v-4.539h12.03c.521,0,.679.022.635.117a1.02,1.02,0,0,0,0,.387Z" transform="translate(-459.622 -683.829)" fill="#ce4531"/>
      <path id="Path_102" data-name="Path 102" d="M509.673,753v-9.046c1.539-.787,3.079-1.587,4.625-2.365,3.656-1.838,7.345-3.619,10.973-5.51a5.107,5.107,0,0,1,7.4,3.266c0,.06.076.111.114.168v2.365a23.941,23.941,0,0,0-3.073,1.422c-5.621,2.771-11.22,5.586-16.823,8.37a17.137,17.137,0,0,1-3.212,1.33Z" transform="translate(-461.532 -683.424)" fill="#febb99"/>
      <path id="Path_103" data-name="Path 103" d="M488.9,718.076a18.835,18.835,0,1,1-10.808-36.067,17.962,17.962,0,0,1,10.792.353c-.044.3-.317.317-.508.4a18.84,18.84,0,0,0-7.738,5.9,19.075,19.075,0,0,0-3.891,9.84,18.73,18.73,0,0,0,.66,7.046,17.9,17.9,0,0,0,3.51,6.631,18.964,18.964,0,0,0,6.818,5.234C488.144,717.6,488.687,717.562,488.9,718.076Z" transform="translate(-459.828 -681.346)" fill="#fe9933"/>
      <path id="Path_104" data-name="Path 104" d="M489.368,718.072c-.213-.514-.755-.476-1.149-.654a18.967,18.967,0,0,1-6.818-5.234,17.9,17.9,0,0,1-3.51-6.631,18.727,18.727,0,0,1-.66-7.046,19.074,19.074,0,0,1,3.891-9.84,18.843,18.843,0,0,1,7.738-5.9c.206-.089.467-.1.508-.4a1.154,1.154,0,0,0,.8-.085,18.408,18.408,0,0,1,11.719.076c0,.241-.2.3-.365.362a18.22,18.22,0,0,0-7.383,5.351,18.55,18.55,0,0,0-4.374,14.02,18.054,18.054,0,0,0,2.52,7.77,18.61,18.61,0,0,0,8.64,7.618,2.52,2.52,0,0,1,1.086.568,18.725,18.725,0,0,1-11.89.086,2.283,2.283,0,0,0-.752-.061Z" transform="translate(-460.297 -681.341)" fill="#fec24d"/>
      <path id="Path_105" data-name="Path 105" d="M509.594,694.528V698.7h0a2.136,2.136,0,0,1-2.085-2.057,2.1,2.1,0,0,1,2.085-2.117Z" transform="translate(-461.459 -681.854)" fill="#fee87f"/>
      <path id="Path_106" data-name="Path 106" d="M509.676,703.209a2.087,2.087,0,0,1,0,4.174Z" transform="translate(-461.542 -682.184)" fill="#fec24c"/>
      <circle id="Ellipse_1" data-name="Ellipse 1" cx="18.841" cy="18.841" r="18.841" transform="translate(28.849 0.041)" fill="#fee97f"/>
      <path id="Path_107" data-name="Path 107" d="M509.215,681.394a18.841,18.841,0,1,1,0,37.682" transform="translate(-461.525 -681.353)" fill="#fec24d" opacity="0.59"/>
      <g id="Group_9" data-name="Group 9" transform="translate(40.141 7.82)">
        <g id="Group_8" data-name="Group 8" transform="translate(0 0)">
          <path id="Path_108" data-name="Path 108" d="M511.99,692.271c.149.235.279.419.39.616a5.734,5.734,0,0,1,.635,1.641c.029.133.086.175.222.175h2.539a1.991,1.991,0,0,1,.27.016.457.457,0,0,1,.422.435q.019.952,0,1.882a.464.464,0,0,1-.419.441,1.719,1.719,0,0,1-.251,0h-2.469c-.152,0-.222.025-.254.2a6.25,6.25,0,0,1-1.177,2.736,6.821,6.821,0,0,1-2.628,2.066,9.9,9.9,0,0,1-2.835.781l-.124.022.149.172c2.565,2.774,4.967,5.685,7.367,8.6l.206.257a.467.467,0,0,1,.07.54.511.511,0,0,1-.486.317h-3.3a.6.6,0,0,1-.47-.27c-.762-.908-1.511-1.828-2.292-2.717q-2.857-3.26-5.732-6.5c-.073-.083-.146-.165-.225-.241a.761.761,0,0,1-.232-.593c0-.635,0-1.245,0-1.867,0-.486.2-.673.689-.679.927,0,1.854,0,2.777-.054a5.815,5.815,0,0,0,2.8-.829,3.2,3.2,0,0,0,1.409-1.793.909.909,0,0,1,.035-.156h-7a1.589,1.589,0,0,1-.317-.022.447.447,0,0,1-.384-.428c0-.635,0-1.241,0-1.863a.463.463,0,0,1,.441-.46,2.241,2.241,0,0,1,.292,0h6.754c-.124-.187-.213-.343-.317-.479A3.734,3.734,0,0,0,506.365,693a9.637,9.637,0,0,0-2.162-.2h-2.158c-.486,0-.682-.2-.682-.683V690.17c0-.514.178-.692.686-.692h13.718c.492,0,.679.184.682.683s0,.971,0,1.457-.194.657-.663.657h-3.8Z" transform="translate(-501.362 -689.478)" fill="#fec24d"/>
        </g>
      </g>
    </g>
  </g>
</svg>
