<svg xmlns="http://www.w3.org/2000/svg" xmlns:xlink="http://www.w3.org/1999/xlink" width="76" height="76" viewBox="0 0 76 76">
  <defs>
    <clipPath id="clip-path">
      <rect id="Rectangle_57" data-name="Rectangle 57" width="76" height="76" transform="translate(0.328 0.177)"/>
    </clipPath>
  </defs>
  <g id="Multi_BrandChoice" data-name="Multi BrandChoice" transform="translate(-0.328 -0.177)" clip-path="url(#clip-path)">
    <g id="Group_2" data-name="Group 2" transform="translate(1.339 6.383)">
      <path id="Path_25" data-name="Path 25" d="M453.039,252.177l.152-.156h40.841v17.832a3.78,3.78,0,0,1-.127,1.06,4.662,4.662,0,0,1-3.139,3.155c-5.4.356-10.766.108-16.15.152-5.437.048-10.874.019-16.312,0a5.712,5.712,0,0,1-2.882-.635,4.126,4.126,0,0,1-2-2.409c-.063-.2-.044-.511-.387-.524Zm20.59,11.769h11.109c.876,0,1.377-.406,1.4-1.089s-.514-1.127-1.346-1.178H462.821a3.415,3.415,0,0,0-.917.1,1.01,1.01,0,0,0-.759,1.086,1.038,1.038,0,0,0,.908,1.044,4.714,4.714,0,0,0,.784.032Zm.048-4.31h10.735a4.457,4.457,0,0,0,.714-.019,1.07,1.07,0,0,0,.987-1.054,1.025,1.025,0,0,0-.819-1.111,2.961,2.961,0,0,0-.775-.086H462.764a3.453,3.453,0,0,0-.848.1,1,1,0,0,0-.784,1.063,1.057,1.057,0,0,0,.882,1.07,3.667,3.667,0,0,0,.784.038Zm0,8.624h10.741c1.174,0,1.733-.375,1.711-1.14s-.555-1.079-1.695-1.082H462.809a4.368,4.368,0,0,0-.784.038,1.1,1.1,0,0,0,0,2.139,3.96,3.96,0,0,0,.784.038Z" transform="translate(-453.039 -211.133)" fill="#e3e6e7"/>
      <path id="Path_26" data-name="Path 26" d="M499.055,207.9c1.317-1.508,2.657-3,3.945-4.526a4.46,4.46,0,0,1,6.742-.578q9.773,8.443,19.533,16.9c1.27,1.092,2.517,2.193,3.809,3.26a6.4,6.4,0,0,1,2.222,3.136v1.587a10.751,10.751,0,0,1-2.822,4.126q-7.729,8.979-15.493,17.93a3.539,3.539,0,0,1-.318.289l-5.713-4.894v-.209a4,4,0,0,0,.254-.5q4.126-12.29,8.224-24.583a4.4,4.4,0,0,0-3-5.932q-8.325-2.8-16.651-5.6C499.515,208.215,499.179,208.237,499.055,207.9Z" transform="translate(-461.794 -201.521)" fill="#f1b66d"/>
      <path id="Path_27" data-name="Path 27" d="M511.06,254.484v.209c-.063.152-.133.317-.184.46-1.72,5.12-3.472,10.227-5.136,15.362a5.18,5.18,0,0,1-3.587,3.809l-.565.057h-.714l-1.247-.317a4.666,4.666,0,0,0,3.139-3.155,3.783,3.783,0,0,0,.127-1.06q0-8.916,0-17.832l.057-.117c.251.063.5.117.749.2Q507.385,253.268,511.06,254.484Z" transform="translate(-461.913 -211.082)" fill="#55a4c9"/>
      <path id="Path_28" data-name="Path 28" d="M502.75,275.009a5.18,5.18,0,0,0,3.587-3.809c1.663-5.136,3.418-10.246,5.136-15.362.054-.156.124-.317.184-.46l5.713,4.894-4.729,5.51c-1.946,2.269-3.882,4.548-5.834,6.815a6.5,6.5,0,0,1-3.136,2.473C503.356,275.161,503.039,275.307,502.75,275.009Z" transform="translate(-462.499 -211.778)" fill="#e3e7e8"/>
      <path id="Path_29" data-name="Path 29" d="M501.171,279.67h.714a.562.562,0,0,1-.714,0Z" transform="translate(-462.197 -216.392)" fill="#e3e7e8"/>
      <path id="Path_30" data-name="Path 30" d="M494.113,244.567l-.057.117H453.216v-26.71a4.4,4.4,0,0,1,4.723-4.475c3.866-.019,7.735,0,11.6,0,.286,0,.571-.019.857-.029s.571.029.857.029h17.838a7.786,7.786,0,0,1,1.7.181,4.469,4.469,0,0,1,3.295,4.542c-.048,8.478-.019,16.953-.016,25.431C494.081,243.948,494.113,244.259,494.113,244.567ZM462.4,225.84c.206.225.352.4.514.565l4.678,4.634c.2.2.4.365.318.727-.276,1.422-.521,2.857-.765,4.279-.171.993-.317,1.993-.492,3.073a4.371,4.371,0,0,0,.432-.159c2-1.057,4.009-2.1,6-3.174a.952.952,0,0,1,1.051-.025c1.251.692,2.517,1.355,3.783,2.019.851.448,1.711.873,2.628,1.343a4.373,4.373,0,0,0,0-.635c-.362-2.082-.74-4.161-1.089-6.247-.063-.381-.2-.8.162-1.146q1.85-1.793,3.685-3.6l1.666-1.638c-2.5-.375-4.8-.749-7.107-1.035a1.165,1.165,0,0,1-1.044-.765q-1.428-2.928-2.892-5.831c-.086-.171-.127-.387-.355-.5-1.066,2.171-2.123,4.3-3.158,6.453a1.006,1.006,0,0,1-.908.635c-2.326.289-4.663.657-7.1,1.019Z" transform="translate(-453.076 -203.784)" fill="#e46353"/>
      <path id="Path_31" data-name="Path 31" d="M498.156,242.805c0-.317-.038-.619-.038-.927,0-8.478-.032-16.956.016-25.431a4.469,4.469,0,0,0-3.295-4.542,7.791,7.791,0,0,0-1.7-.181H475.3c-.286,0-.571-.019-.857-.029.559-1.641,1.054-3.3,1.692-4.91a4.4,4.4,0,0,1,6-2.327c.574.238,1.171.349,1.752.546,3.174,1.092,6.389,2.152,9.586,3.219a2.137,2.137,0,0,0,.9.181c.124.336.46.317.714.4q8.323,2.809,16.651,5.6a4.4,4.4,0,0,1,3,5.932q-4.088,12.3-8.224,24.583a4,4,0,0,1-.254.5l-7.354-2.419C498.661,242.919,498.407,242.869,498.156,242.805Z" transform="translate(-457.112 -202.022)" fill="#e3e6e8"/>
      <path id="Path_32" data-name="Path 32" d="M475.522,266.212H464.731a4.688,4.688,0,0,1-.784-.032,1.038,1.038,0,0,1-.908-1.044,1.009,1.009,0,0,1,.759-1.085,3.4,3.4,0,0,1,.917-.1h21.974c.835.051,1.368.517,1.346,1.178s-.527,1.089-1.4,1.089Q481.071,266.218,475.522,266.212Z" transform="translate(-454.932 -213.399)" fill="#e46353"/>
      <path id="Path_33" data-name="Path 33" d="M475.582,260.886H464.7a3.652,3.652,0,0,1-.784-.038,1.054,1.054,0,0,1-.882-1.07,1,1,0,0,1,.784-1.063,3.456,3.456,0,0,1,.847-.1h21.755a2.956,2.956,0,0,1,.775.086,1.025,1.025,0,0,1,.819,1.111,1.07,1.07,0,0,1-.987,1.054,4.472,4.472,0,0,1-.714.019Z" transform="translate(-454.944 -212.383)" fill="#e46353"/>
      <path id="Path_34" data-name="Path 34" d="M475.581,271.55H464.7a3.955,3.955,0,0,1-.784-.038,1.1,1.1,0,0,1,0-2.139,4.373,4.373,0,0,1,.784-.038h21.625c1.143,0,1.673.343,1.695,1.082s-.536,1.14-1.711,1.14Z" transform="translate(-454.963 -214.423)" fill="#e46353"/>
      <path id="Path_35" data-name="Path 35" d="M464.561,226.846c2.438-.362,4.761-.73,7.123-1.038a1.006,1.006,0,0,0,.908-.635c1.035-2.149,2.092-4.282,3.158-6.453.229.114.27.317.356.5.971,1.939,1.946,3.879,2.892,5.831a1.165,1.165,0,0,0,1.044.765c2.307.286,4.605.663,7.107,1.035l-1.666,1.638q-1.841,1.8-3.685,3.6c-.355.346-.225.765-.159,1.146.349,2.085.727,4.164,1.089,6.247a4.373,4.373,0,0,1,0,.635c-.917-.467-1.777-.9-2.628-1.343-1.27-.663-2.539-1.33-3.783-2.019a.952.952,0,0,0-1.051.025c-1.99,1.082-4,2.13-6,3.174a4.35,4.35,0,0,1-.432.159c.171-1.079.318-2.079.492-3.072.244-1.428.489-2.857.765-4.279.07-.362-.133-.527-.317-.727l-4.679-4.634A6.448,6.448,0,0,1,464.561,226.846Z" transform="translate(-455.232 -204.795)" fill="#f1b66d"/>
    </g>
  </g>
</svg>
