<svg xmlns="http://www.w3.org/2000/svg" width="52.798" height="59.789" viewBox="0 0 52.798 59.789">
  <g id="Group_13557" data-name="Group 13557" transform="translate(-7184.333 -156.531)">
    <g id="Group_24" data-name="Group 24" transform="translate(7184.333 189.102)">
      <path id="Path_176" data-name="Path 176" d="M904.17,1797.405c-1.122-4.145-2.215-8.114-3.241-12.093a1.264,1.264,0,0,1,.51-1.06,21.911,21.911,0,0,1,13.216-3.557c2.8.238,5.643.034,8.467.05a3.016,3.016,0,1,1,.221,6c-1.126.09-2.253.159-3.374.289a1.87,1.87,0,0,0-1.9,2.16,1.809,1.809,0,0,0,2.165,1.719,38.914,38.914,0,0,0,4.282-.348,6.639,6.639,0,0,0,5.579-4.671,1.66,1.66,0,0,1,1.3-1.219c2.1-.538,4.187-1.133,6.284-1.686a2.737,2.737,0,0,1,3.493,1.437,2.7,2.7,0,0,1-1.422,3.6q-8.062,4.4-16.138,8.74a7.91,7.91,0,0,1-6.186.545c-2.371-.69-4.742-1.4-7.149-1.973a3.938,3.938,0,0,0-2.189.216C906.79,1796.042,905.585,1796.72,904.17,1797.405Z" transform="translate(-888.618 -1780.663)" fill="#bcbcbc"/>
      <path id="Path_177" data-name="Path 177" d="M853.841,1818.795v-7.426c0-3.95.019-7.9-.017-11.856a1.321,1.321,0,0,1,.927-1.455c1.84-.766,3.654-1.6,5.453-2.452,1.062-.5,1.629-.159,1.918.913q1.961,7.286,3.936,14.566c.192.711.221,1.351-.588,1.774-3.725,1.951-7.436,3.927-11.156,5.885a1.557,1.557,0,0,1-.474.052Z" transform="translate(-853.81 -1791.577)" fill="#c23733"/>
    </g>
    <g id="_7F4US6.tif" data-name="7F4US6.tif" transform="translate(7204.995 156.531)">
      <g id="Group_25" data-name="Group 25">
        <path id="Path_178" data-name="Path 178" d="M746,2053.55a4.88,4.88,0,0,0,.2-.852,6.035,6.035,0,0,1,4.777-4.4c.2-.031.27-.1.3-.311a4.408,4.408,0,0,1,8.773.271c.05.785.016,1.569.021,2.354a.714.714,0,0,0,.128.427,6.005,6.005,0,0,1-.026,6.938.344.344,0,0,0-.029.448c.368.61.711,1.233,1.079,1.843a.768.768,0,0,1,.1.539c-.062.436-.1.877-.175,1.313-.024.142.026.19.142.238.434.175.861.368,1.295.541a.572.572,0,0,1,.31.274c.183.33.368.662.567.985a.57.57,0,0,1,.076.41c-.069.474-.118.93-.187,1.394-.019.128.033.173.138.216.441.178.88.367,1.321.55a.489.489,0,0,1,.261.216c.3.526.593,1.051.906,1.567.093.152.052.2-.085.279q-.918.516-1.823,1.055a.455.455,0,0,1-.382.052q-1.185-.325-2.371-.636a.425.425,0,0,1-.284-.218q-2.352-4.086-4.719-8.164c-.114-.195-.029-.256.107-.353a7.416,7.416,0,0,0,3.082-4.491,7.5,7.5,0,0,0-1.627-6.782c-.062-.075-.128-.149-.192-.222V2049a3.387,3.387,0,0,1,.754.339,3.321,3.321,0,0,0-.5-2.345,2.754,2.754,0,0,0-4.031-.55,2.688,2.688,0,0,0-.982,1.631c-.036.175.023.2.159.218a5.58,5.58,0,0,1,2.644,1.157,6.046,6.046,0,0,1-1.219,10.3.284.284,0,0,0-.182.311q0,1.1,0,2.194a.655.655,0,0,1-.147.446c-.282.351-.541.711-.825,1.072a.211.211,0,0,0,0,.32c.286.358.557.733.839,1.1a.542.542,0,0,1,.128.37,4.848,4.848,0,0,1-.04,1.345,4.263,4.263,0,0,1-.764,1.071c-.282.375-.28.372,0,.749a4.4,4.4,0,0,1,.763,1.072,4.456,4.456,0,0,1,.038,1.29,4.5,4.5,0,0,0,.024.835h-2.608c0-.1-.1-.143-.161-.2-.536-.536-1.072-1.072-1.617-1.6a.592.592,0,0,1-.2-.474v-9.53a.37.37,0,0,0-.256-.4,5.975,5.975,0,0,1-3.305-3.883,5.7,5.7,0,0,0-.216-.873Zm7.656-.652a1.616,1.616,0,1,0,0,.007Z" transform="translate(-745.981 -2044.126)" fill="#c23733"/>
        <path id="Path_179" data-name="Path 179" d="M1045.823,2163.74c-.1.029-.114.128-.154.2-.337.574-.671,1.152-1,1.731a.474.474,0,0,1-.327.237c-.775.2-1.548.413-2.319.624a.473.473,0,0,1-.408-.043q-3.163-1.838-6.336-3.663a.629.629,0,0,1-.237-.237c-.3-.534-.607-1.065-.92-1.588a.345.345,0,0,1,0-.392,7.654,7.654,0,0,0-.23-7.559c-.07-.115-.137-.232-.2-.349a.248.248,0,0,1,.038-.1,5.627,5.627,0,0,1,.657.816,5.943,5.943,0,0,1,.994,3.927.373.373,0,0,0,.237.42c.631.348,1.247.711,1.875,1.073a.586.586,0,0,1,.277.31c.176.435.365.861.538,1.3a.188.188,0,0,0,.237.14c.474-.069.949-.124,1.423-.192a.4.4,0,0,1,.33.07l.024.013c.4.257.913.382,1.186.759a5.471,5.471,0,0,1,.557,1.282c.081.214.166.311.422.256.4-.081.8-.1,1.2-.164a.726.726,0,0,1,.512.1c.474.285.949.555,1.423.825.066.039.123.112.215.091Z" transform="translate(-1018.07 -2146.672)" fill="#c23733"/>
        <path id="Path_180" data-name="Path 180" d="M1030.952,2150.205c-.021-.022-.057-.043-.012-.076l.045.045Z" transform="translate(-1015.464 -2144.329)" fill="#c23733"/>
        <path id="Path_181" data-name="Path 181" d="M1031.588,2150.936l.057.052-.038.052-.052-.071Z" transform="translate(-1016.07 -2145.091)" fill="#c23733"/>
        <path id="Path_182" data-name="Path 182" d="M1032.537,2151.885c.026.016.076.024.04.071s-.057.011-.078-.016Z" transform="translate(-1016.959 -2145.99)" fill="#c23733"/>
      </g>
    </g>
  </g>
</svg>
