<svg xmlns="http://www.w3.org/2000/svg" width="24" height="24" viewBox="0 0 24 24">
  <g id="Group_18" data-name="Group 18" transform="translate(-1526 -885)">
    <path id="Path_76" data-name="Path 76" d="M24.228,18.28c-.042-.036-4.833-3.475-6.135-3.239-.625.111-.982.537-1.7,1.388-.115.138-.392.467-.607.7a10.013,10.013,0,0,1-1.321-.538,10.96,10.96,0,0,1-5.057-5.057,9.966,9.966,0,0,1-.538-1.321c.235-.216.565-.493.706-.611.848-.712,1.274-1.069,1.385-1.694.226-1.3-3.2-6.091-3.24-6.134A1.831,1.831,0,0,0,6.36,1C4.97,1,1,6.15,1,7.017c0,.05.073,5.174,6.39,11.6C13.81,24.927,18.933,25,18.983,25,19.85,25,25,21.03,25,19.64A1.826,1.826,0,0,0,24.228,18.28Z" transform="translate(1525 884)" fill="#fff"/>
    <path id="Path_77" data-name="Path 77" d="M16.773,8.547a4.645,4.645,0,0,1,4.64,4.64.773.773,0,0,0,1.547,0A6.194,6.194,0,0,0,16.773,7a.773.773,0,1,0,0,1.547Z" transform="translate(1522.172 882.869)" fill="#fff"/>
    <path id="Path_78" data-name="Path 78" d="M16.773,3.547a8.517,8.517,0,0,1,8.507,8.507.773.773,0,1,0,1.547,0A10.065,10.065,0,0,0,16.773,2a.773.773,0,1,0,0,1.547Z" transform="translate(1522.4 883.773)" fill="#fff"/>
  </g>
</svg>
