<svg xmlns="http://www.w3.org/2000/svg" width="70" height="48.819" viewBox="0 0 70 48.819">
  <g id="Group_16" data-name="Group 16" transform="translate(114.44 -624)">
    <path id="Path_68" data-name="Path 68" d="M18.125,47.7a6.547,6.547,0,1,1-.448-4.137,7.668,7.668,0,0,0-2.141-4.126L12.172,36.68h-.437a9.574,9.574,0,1,0,8.834,13.251,4.126,4.126,0,0,1-2.444-2.242Z" transform="translate(-115.021 616.989)" fill="#bcbcbc"/>
    <path id="Path_69" data-name="Path 69" d="M55.44,36.67a9.6,9.6,0,0,0-2.029.213s-2.9,4.888-3,5.191a6.547,6.547,0,1,1-1.2,6.177,4.585,4.585,0,0,1-2.567,1.76,9.574,9.574,0,1,0,8.8-13.341Z" transform="translate(-109.635 616.988)" fill="#bcbcbc"/>
    <circle id="Ellipse_2" data-name="Ellipse 2" cx="3.128" cy="3.128" r="3.128" transform="translate(-106.414 660.104)" fill="#c23733"/>
    <circle id="Ellipse_3" data-name="Ellipse 3" cx="3.128" cy="3.128" r="3.128" transform="translate(-57.323 660.104)" fill="#c23733"/>
    <path id="Path_70" data-name="Path 70" d="M10.743,28.089,33.164,30.1a2.612,2.612,0,0,0,2.791-2.635v-3.15a1.121,1.121,0,0,0-1.121-1.121H8.411A1.121,1.121,0,0,0,7.29,24.311a3.789,3.789,0,0,0,3.453,3.778Z" transform="translate(-114.4 615.356)" fill="#c23733"/>
    <path id="Path_71" data-name="Path 71" d="M54.124,48.786a7.522,7.522,0,0,1-.112-1.267,7.6,7.6,0,0,1,1.121-3.9L58.5,38.012a11.289,11.289,0,0,1,9.8,2.141,1.513,1.513,0,0,0,2.164-.269,1.536,1.536,0,0,0-.291-2.108,14.35,14.35,0,0,0-8.969-3.15l-.751.011.93-1.558a3.9,3.9,0,0,0-.807-4.709L53.2,21.476a8.969,8.969,0,0,0,4.081.886h.258V21.185a4.922,4.922,0,0,0,0-9.832V10.232h-.258a7.444,7.444,0,0,0-6.02,2.433,2.433,2.433,0,0,0-3.969,0l-1.883-1.883H39.348a1.368,1.368,0,0,0-1.379,1.278,1.345,1.345,0,0,0,1.345,1.413h5.034l2.534,2.556v3.464l3.363,8.554a8.8,8.8,0,0,1-.146,7.2l-3.756,8.262a4.282,4.282,0,0,1-3.834,2.511H35.783A4.282,4.282,0,0,1,31.5,41.734V32.978L11.322,31.162a5.28,5.28,0,0,1-4.574-3.89H4.831a1.121,1.121,0,0,0-.762,1.883l.762.74H3.272a1.121,1.121,0,0,0-.762,1.883L7.443,36.6,1.355,39.884a1.009,1.009,0,1,0,.953,1.771L11.12,36.88l5.605,4.6a9.114,9.114,0,0,1,2.769,6.614,8.7,8.7,0,0,1,0,.919,2.635,2.635,0,0,0,2.623,2.881H51.052a3.072,3.072,0,0,0,3.083-3.083Zm3.453-34.551H60.6a3.857,3.857,0,0,1,.605,2.074,3.913,3.913,0,0,1-3.632,3.879Z" transform="translate(-115.191 613.785)" fill="#bcbcbc"/>
  </g>
</svg>
