<svg id="Group_17" data-name="Group 17" xmlns="http://www.w3.org/2000/svg" width="73" height="45.756" viewBox="0 0 73 45.756">
  <rect id="Rectangle_33" data-name="Rectangle 33" width="15" height="15" transform="translate(29 21)" fill="#c23733"/>
  <path id="Path_72" data-name="Path 72" d="M14.476,50.9A11.477,11.477,0,0,1,3,39.426a11.334,11.334,0,0,1,.832-4.278l7.577,7.417a4.365,4.365,0,0,0,3.066,1.241,4.412,4.412,0,0,0,4.38-4.409,4.466,4.466,0,0,0-1.314-3.1L9.95,28.884A11.471,11.471,0,1,1,14.476,50.9Z" transform="translate(47.063 -5.145)" fill="#bcbcbc"/>
  <path id="Path_73" data-name="Path 73" d="M48.756,27.95a10.973,10.973,0,0,1,2.789.35l-6.307,8.526a4.441,4.441,0,0,0-.818,3.256,4.39,4.39,0,0,0,7.826,2l6.336-8.57a11.362,11.362,0,0,1,1.65,5.913A11.476,11.476,0,1,1,48.756,27.95Z" transform="translate(-37.28 -5.145)" fill="#bcbcbc"/>
  <path id="Path_74" data-name="Path 74" d="M71.775,26.974l-7.548,5.081a1.325,1.325,0,0,1-.672.234,14.242,14.242,0,0,0-7.825,3.3l10.2,9.981a1.46,1.46,0,0,1-1.022,2.5,1.422,1.422,0,0,1-1.022-.409l-10.2-9.98a14.089,14.089,0,0,0-2.732,12.389,1.457,1.457,0,0,1-.277,1.241,1.431,1.431,0,0,1-1.139.569H30.223a1.463,1.463,0,0,1-1.416-1.81,14.225,14.225,0,0,0-4.273-14.078l-8.5,11.494a1.484,1.484,0,0,1-2.044.307,1.454,1.454,0,0,1-.307-2.044l8.506-11.5a14.281,14.281,0,0,0-7.338-2.034,13.572,13.572,0,0,0-2.175.19,1.463,1.463,0,0,1-1.343-.5L6.046,25.674a1.467,1.467,0,0,1-.336-.934V21.207a1.455,1.455,0,0,1,1.46-1.46H21.288a1.5,1.5,0,0,1,1.3.774l2.059,3.9A28.372,28.372,0,0,0,33.3,24.01l1.621-1.65a14.423,14.423,0,0,1,14.425-3.825,31.063,31.063,0,0,1,4.8,1.927l-1.5-2.774a1.5,1.5,0,0,1-.146-.978l.628-3.2a1.45,1.45,0,0,1,1.4-1.183c.482,0,11.33-.044,17.724,12.775A1.45,1.45,0,0,1,71.775,26.974ZM43.509,35.836H37.173a1.46,1.46,0,0,0,0,2.92h6.336a1.46,1.46,0,0,0,0-2.92Zm0,5.008H37.173a1.46,1.46,0,0,0,0,2.92h6.336a1.46,1.46,0,0,0,0-2.92Z" transform="translate(-3.374 -12.33)" fill="#bcbcbc"/>
  <path id="Path_75" data-name="Path 75" d="M-41.885,644.731c1.274-.457,3.568,3.593,3.568,3.593s-7.176.823-12.134-.516-19.224-5.572-19.224-5.572a1.926,1.926,0,0,1,1.985-1.753c1.827.021,13.4-.028,13.4-.028s1.145-.306,2.134,1.43a16.335,16.335,0,0,1,1.408,3.185S-43.159,645.188-41.885,644.731Z" transform="translate(71.991 -633)" fill="#c23733"/>
</svg>
