<svg xmlns="http://www.w3.org/2000/svg" xmlns:xlink="http://www.w3.org/1999/xlink" width="76" height="76" viewBox="0 0 76 76">
  <defs>
    <clipPath id="clip-path">
      <rect id="Rectangle_59" data-name="Rectangle 59" width="76" height="76" transform="translate(0.41 0.177)"/>
    </clipPath>
  </defs>
  <g id="Wasan_GroupLegacy_of_trust" data-name="Wasan GroupLegacy of trust" transform="translate(-0.41 -0.177)" clip-path="url(#clip-path)">
    <g id="Group_6" data-name="Group 6" transform="translate(6.104 0.807)">
      <g id="BZubr9.tif" transform="translate(0 36.131)">
        <g id="Group_5" data-name="Group 5" transform="translate(0 0)">
          <path id="Path_68" data-name="Path 68" d="M467.51,511.23a3.523,3.523,0,0,1-4.364,2.644c-2.13-.273-4.263-.524-6.4-.765a1.519,1.519,0,0,1-1.073-.635V511.1c.317-.549.143-1.193.349-1.762a4.6,4.6,0,0,0,2.269.508q2.327.317,4.663.581a5.8,5.8,0,0,0,3.06-.076A5.293,5.293,0,0,0,467.751,509Z" transform="translate(-455.677 -486.177)" fill="#ce4531"/>
          <path id="Path_69" data-name="Path 69" d="M470.869,505.41l.241-2.222c.292-2.3.594-4.593.879-6.891q.6-4.863,1.187-9.729c1.114.079,2.222.152,3.342.248.317.029.438-.149.555-.384.343-.686.72-1.355,1.032-2.057a2.79,2.79,0,0,1,3.549-1.546c1.717.536,3.469.952,5.205,1.422-.152.244-.318.482-.454.73q-1.222,2.092-2.441,4.187c-1.308,2.257-2.631,4.507-3.91,6.783a1.562,1.562,0,0,0,.952,2.415,5.761,5.761,0,0,0,6.24-1.387,34.45,34.45,0,0,0,2.587-3.254c.387-.5.581-.4.952-.035a8.1,8.1,0,0,0,4.053,2.162c.508.111,1.073,0,1.52.425.613.587,1.27,1.117,1.9,1.673l5.786,4.977c.422.365.838.736,1.27,1.1s.774.876,1.368,1.041c-.019.181.175.225.232.359-.175.425.149.809.079,1.241a3.707,3.707,0,0,1-1.9,2.46.565.565,0,0,1-.768-.117c-.775-.711-1.587-1.375-2.406-2.054a.879.879,0,0,0-1.365.041.867.867,0,0,0,.1,1.308,7.939,7.939,0,0,0,.7.619c.191.149.318.317.121.514-.524.613-1.028,1.244-1.587,1.822a.749.749,0,0,1-1.19-.038c-.635-.6-1.295-1.158-1.965-1.711a.857.857,0,0,0-1.27.086c-.419.444-.352.879.2,1.447.181.187.565.359.248.7a18.265,18.265,0,0,1-2,2.124,2.981,2.981,0,0,1-2.539.4c-.07-2.352-1.552-3.174-3.968-2.149a2.38,2.38,0,0,0-.968-2.841,2.288,2.288,0,0,0-3.2.714c.248-1.406,0-2.45-1.238-3a2.444,2.444,0,0,0-3.111,1c.368-2.028-.7-3.285-2.495-3.193a2.9,2.9,0,0,0-1.727,1,12.374,12.374,0,0,0-2.248-.232,9.32,9.32,0,0,1-1.552-.143Z" transform="translate(-459.036 -480.347)" fill="#f8c194"/>
          <path id="Path_70" data-name="Path 70" d="M506.585,502.757,500.8,497.78c-.635-.552-1.308-1.086-1.9-1.673-.448-.429-1.013-.318-1.52-.425a8.1,8.1,0,0,1-4.053-2.161c-.365-.362-.559-.463-.952.035a34.378,34.378,0,0,1-2.587,3.253,5.761,5.761,0,0,1-6.24,1.387,1.562,1.562,0,0,1-.952-2.415c1.27-2.276,2.6-4.526,3.911-6.783q1.216-2.095,2.441-4.187c.146-.248.317-.486.454-.73a4.664,4.664,0,0,1,3.473-1.39q3.993-.365,7.983-.743a4.155,4.155,0,0,1,2.511.543c1.622.924,3.266,1.813,4.872,2.761a2.422,2.422,0,0,0,1.949.336,6.213,6.213,0,0,1,.99-.1c.336,2.666.682,5.329,1.006,8,.279,2.3.533,4.6.8,6.9-.816.089-1.641.124-2.441.286-.546.111-1.149-.051-1.631.27A14.967,14.967,0,0,0,506.585,502.757Z" transform="translate(-461.571 -480.176)" fill="#f19e5c"/>
          <path id="Path_71" data-name="Path 71" d="M521.149,499.884c-.263-2.3-.521-4.6-.8-6.9-.317-2.666-.67-5.332-1.006-8a3.758,3.758,0,0,1,.885-3.409,4.343,4.343,0,0,1,2.876-1.136c1.952-.238,3.907-.47,5.856-.727,1.063-.14,1.454.1,1.587,1.19.317,2.485.609,4.977.917,7.462.355,2.879.72,5.755,1.073,8.633.238,1.952.463,3.907.7,5.862a5.044,5.044,0,0,1-2.273.511c-1.552.209-3.1.409-4.663.578a5.82,5.82,0,0,1-3-.06,4.969,4.969,0,0,1-1.784-1.387Zm6.491-.146a1.771,1.771,0,1,0,1.743,1.787,1.7,1.7,0,0,0-1.745-1.787Z" transform="translate(-469.745 -479.681)" fill="#5c9ced"/>
          <path id="Path_72" data-name="Path 72" d="M469.916,485.895q-.594,4.866-1.187,9.729c-.286,2.3-.584,4.6-.879,6.891a5.293,5.293,0,0,1-1.733,1.359,5.8,5.8,0,0,1-3.06.076q-2.333-.26-4.663-.581a4.593,4.593,0,0,1-2.27-.508q.536-4.443,1.076-8.887.593-4.847,1.2-9.694c.149-1.193.286-2.39.46-3.58.124-.841.473-1.1,1.327-1,1.831.216,3.663.454,5.494.686.578.073,1.158.121,1.724.248a3.431,3.431,0,0,1,2.679,3.907C470.011,484.99,469.973,485.454,469.916,485.895Zm-8.253,13.8a1.808,1.808,0,1,0,1.816,1.8A1.809,1.809,0,0,0,461.664,499.7Z" transform="translate(-455.779 -479.676)" fill="#e46353"/>
          <path id="Path_73" data-name="Path 73" d="M475.422,512.057a2.9,2.9,0,0,1,1.727-1c1.787-.092,2.857,1.165,2.495,3.193a2.444,2.444,0,0,1,3.111-1c1.228.552,1.485,1.587,1.238,3a2.288,2.288,0,0,1,3.2-.714,2.381,2.381,0,0,1,.968,2.841c2.415-1.025,3.9-.207,3.968,2.149a6.062,6.062,0,0,1-1.022,1.749,11.226,11.226,0,0,0-1.365,1.9,2.971,2.971,0,0,1-1.746.857,2.3,2.3,0,0,1-2.4-2.812c.022-.117.022-.241.041-.47a2.409,2.409,0,0,1-2.885,0,2.558,2.558,0,0,1-.835-2.774,2.5,2.5,0,0,1-2.936-.083,2.473,2.473,0,0,1-.717-2.768,3.1,3.1,0,0,1-1.965.432,2.317,2.317,0,0,1-1.587-3.428,6.438,6.438,0,0,0,.714-1.079Z" transform="translate(-459.819 -486.616)" fill="#f19f5c"/>
          <path id="Path_74" data-name="Path 74" d="M494.089,524.359a11.2,11.2,0,0,1,1.365-1.9,6.05,6.05,0,0,0,1.022-1.749,2.98,2.98,0,0,0,2.539-.4,18.305,18.305,0,0,0,2-2.124c.318-.337-.063-.508-.248-.7-.549-.568-.616-1-.2-1.447a.857.857,0,0,1,1.27-.086c.67.552,1.343,1.108,1.965,1.711a.749.749,0,0,0,1.19.038c.562-.578,1.067-1.209,1.587-1.822.181-.213.07-.365-.121-.514a8.034,8.034,0,0,1-.695-.619.866.866,0,0,1-.1-1.308.879.879,0,0,1,1.365-.041c.806.679,1.628,1.343,2.406,2.053a.565.565,0,0,0,.768.118,3.708,3.708,0,0,0,1.9-2.46c.07-.432-.257-.819-.079-1.241.546.476,1.111.933,1.631,1.435a1.79,1.79,0,0,1,.375,2.276,2.885,2.885,0,0,1-4.126,1.508c-.276-.156-.406-.057-.568.13-.46.533-.936,1.054-1.4,1.587a2.6,2.6,0,0,1-3.45.635.419.419,0,0,0-.635.127c-.444.517-.9,1.025-1.346,1.549a2.584,2.584,0,0,1-3.491.635c-.244-.139-.39-.139-.571.083-.448.546-.914,1.07-1.371,1.609A2.571,2.571,0,0,1,494.089,524.359Z" transform="translate(-464.167 -486.793)" fill="#e49f6b"/>
          <path id="Path_75" data-name="Path 75" d="M522.147,508.987a4.971,4.971,0,0,0,1.784,1.387,5.824,5.824,0,0,0,3,.06c1.559-.168,3.111-.371,4.663-.578a5.052,5.052,0,0,0,2.272-.511c.118.883.264,1.759.34,2.644a.952.952,0,0,1-.933,1.092c-2.365.317-4.726.635-7.1.87a3.418,3.418,0,0,1-3.809-3.044c-.032-.225-.089-.447-.133-.673Z" transform="translate(-470.372 -486.158)" fill="#3681d3"/>
          <path id="Path_76" data-name="Path 76" d="M520.235,508.246l.086,1.247c-.79,0-1.587.051-2.365,0a2.177,2.177,0,0,0-1.85.635c-.594-.165-.93-.673-1.368-1.041s-.844-.73-1.27-1.095a14.961,14.961,0,0,1,2.317-1.822c.479-.318,1.085-.159,1.631-.27.8-.162,1.625-.2,2.441-.286Z" transform="translate(-468.447 -485.418)" fill="#d27d43"/>
          <path id="Path_77" data-name="Path 77" d="M529.488,505.433a1.771,1.771,0,1,1-1.8,1.727,1.7,1.7,0,0,1,1.8-1.727Z" transform="translate(-471.593 -485.372)" fill="#e8ecf1"/>
          <path id="Path_78" data-name="Path 78" d="M462.733,505.385a1.808,1.808,0,1,1-1.8,1.815,1.807,1.807,0,0,1,1.8-1.815Z" transform="translate(-456.854 -485.362)" fill="#eaeaef"/>
        </g>
      </g>
      <path id="Path_66" data-name="Path 66" d="M476.886,364.661a2.145,2.145,0,0,0,.476-.133l-2.914,3.809a.606.606,0,0,1-.479.238.642.642,0,0,1-.155-.022.6.6,0,0,1-.441-.489L473,365.306l-2.745.368a.6.6,0,0,1-.562-.952l2.33-3.034c.286.048.574.073.835.1l.419.035c.038.1.108.238.19.441a3.638,3.638,0,0,0,2.054,2.317,2.574,2.574,0,0,0,1.362.086Zm7.475-10.69a5.374,5.374,0,1,1-5.374-5.374h0a5.4,5.4,0,0,1,5.374,5.377Zm-2.819-2.019a.6.6,0,0,0-.835.108l-2.6,3.438-.825-1.124a.6.6,0,1,0-.952.7l1.289,1.768a.635.635,0,0,0,.479.251h0a.607.607,0,0,0,.479-.238l3.082-4.072A.6.6,0,0,0,481.542,351.952Zm-.229,11.538a4.445,4.445,0,0,1-1.27-.584,3.014,3.014,0,0,0-1.016-.454l-.035-.048-.035.048a3.028,3.028,0,0,0-1.016.454,4.124,4.124,0,0,1-1.27.584,1.467,1.467,0,0,1-.752-.035c-.74-.238-1.063-1-1.349-1.673a3.8,3.8,0,0,0-.441-.86.462.462,0,0,0-.108-.108,2.733,2.733,0,0,0-1.086-.216h-.06a2.539,2.539,0,0,1-1.946-.765,2.581,2.581,0,0,1-.1-2.127,3.094,3.094,0,0,0,.12-1.124,2.857,2.857,0,0,0-.73-.787,2,2,0,0,1,0-3.653,2.832,2.832,0,0,0,.73-.79,3.088,3.088,0,0,0-.121-1.12,2.582,2.582,0,0,1,.1-2.127,2.629,2.629,0,0,1,2.006-.765,2.715,2.715,0,0,0,1.085-.216,2.832,2.832,0,0,0,.549-.952c.286-.67.609-1.432,1.349-1.673a2.539,2.539,0,0,1,2.028.549,1.419,1.419,0,0,0,2.1,0,2.54,2.54,0,0,1,2.028-.549c.74.238,1.063,1,1.349,1.673a2.81,2.81,0,0,0,.549.952,2.715,2.715,0,0,0,1.086.216,2.631,2.631,0,0,1,2.006.765,2.583,2.583,0,0,1,.1,2.127,3.109,3.109,0,0,0-.121,1.12,2.838,2.838,0,0,0,.73.79,2,2,0,0,1,0,3.654,2.854,2.854,0,0,0-.73.787,3.124,3.124,0,0,0,.121,1.124,2.584,2.584,0,0,1-.1,2.127,2.539,2.539,0,0,1-1.949.765h-.06a2.731,2.731,0,0,0-1.086.216.462.462,0,0,0-.108.108,3.749,3.749,0,0,0-.441.86c-.286.67-.609,1.432-1.349,1.673a1.328,1.328,0,0,1-.419.073,1.521,1.521,0,0,1-.359-.035Zm4.241-9.522a6.694,6.694,0,1,0,0,.006Zm.406,7.726c-.264.048-.514.073-.73.1h-.178l-.359.035c-.035.1-.1.216-.168.406a3.669,3.669,0,0,1-2.089,2.352,2.6,2.6,0,0,1-.79.133,3.366,3.366,0,0,1-.6-.06,2.613,2.613,0,0,1-.441-.133l2.914,3.809a.606.606,0,0,0,.479.238.633.633,0,0,0,.156-.022.6.6,0,0,0,.441-.489l.368-2.758,2.746.368a.6.6,0,0,0,.562-.952Z" transform="translate(-772.402 -498.341)" fill="#4ea265"/>
    </g>
    <g id="Group_22" data-name="Group 22" transform="translate(28.444 6.933)">
      <path id="Path_66-2" data-name="Path 66" d="M476.886,364.661a2.145,2.145,0,0,0,.476-.133l-2.914,3.809a.606.606,0,0,1-.479.238.642.642,0,0,1-.155-.022.6.6,0,0,1-.441-.489L473,365.306l-2.745.368a.6.6,0,0,1-.562-.952l2.33-3.034c.286.048.574.073.835.1l.419.035c.038.1.108.238.19.441a3.638,3.638,0,0,0,2.054,2.317,2.574,2.574,0,0,0,1.362.086Zm7.475-10.69a5.374,5.374,0,1,1-5.374-5.374h0a5.4,5.4,0,0,1,5.374,5.377Zm-2.819-2.019a.6.6,0,0,0-.835.108l-2.6,3.438-.825-1.124a.6.6,0,1,0-.952.7l1.289,1.768a.635.635,0,0,0,.479.251h0a.607.607,0,0,0,.479-.238l3.082-4.072A.6.6,0,0,0,481.542,351.952Zm-.229,11.538a4.445,4.445,0,0,1-1.27-.584,3.014,3.014,0,0,0-1.016-.454l-.035-.048-.035.048a3.028,3.028,0,0,0-1.016.454,4.124,4.124,0,0,1-1.27.584,1.467,1.467,0,0,1-.752-.035c-.74-.238-1.063-1-1.349-1.673a3.8,3.8,0,0,0-.441-.86.462.462,0,0,0-.108-.108,2.733,2.733,0,0,0-1.086-.216h-.06a2.539,2.539,0,0,1-1.946-.765,2.581,2.581,0,0,1-.1-2.127,3.094,3.094,0,0,0,.12-1.124,2.857,2.857,0,0,0-.73-.787,2,2,0,0,1,0-3.653,2.832,2.832,0,0,0,.73-.79,3.088,3.088,0,0,0-.121-1.12,2.582,2.582,0,0,1,.1-2.127,2.629,2.629,0,0,1,2.006-.765,2.715,2.715,0,0,0,1.085-.216,2.832,2.832,0,0,0,.549-.952c.286-.67.609-1.432,1.349-1.673a2.539,2.539,0,0,1,2.028.549,1.419,1.419,0,0,0,2.1,0,2.54,2.54,0,0,1,2.028-.549c.74.238,1.063,1,1.349,1.673a2.81,2.81,0,0,0,.549.952,2.715,2.715,0,0,0,1.086.216,2.631,2.631,0,0,1,2.006.765,2.583,2.583,0,0,1,.1,2.127,3.109,3.109,0,0,0-.121,1.12,2.838,2.838,0,0,0,.73.79,2,2,0,0,1,0,3.654,2.854,2.854,0,0,0-.73.787,3.124,3.124,0,0,0,.121,1.124,2.584,2.584,0,0,1-.1,2.127,2.539,2.539,0,0,1-1.949.765h-.06a2.731,2.731,0,0,0-1.086.216.462.462,0,0,0-.108.108,3.749,3.749,0,0,0-.441.86c-.286.67-.609,1.432-1.349,1.673a1.328,1.328,0,0,1-.419.073,1.521,1.521,0,0,1-.359-.035Zm4.241-9.522a6.694,6.694,0,1,0,0,.006Zm.406,7.726c-.264.048-.514.073-.73.1h-.178l-.359.035c-.035.1-.1.216-.168.406a3.669,3.669,0,0,1-2.089,2.352,2.6,2.6,0,0,1-.79.133,3.366,3.366,0,0,1-.6-.06,2.613,2.613,0,0,1-.441-.133l2.914,3.809a.606.606,0,0,0,.479.238.633.633,0,0,0,.156-.022.6.6,0,0,0,.441-.489l.368-2.758,2.746.368a.6.6,0,0,0,.562-.952Z" transform="translate(-469.036 -344.467)" fill="#4ea265"/>
    </g>
  </g>
</svg>
