<svg xmlns="http://www.w3.org/2000/svg" width="12.89" height="11.598" viewBox="0 0 12.89 11.598">
  <path id="Path_206" data-name="Path 206" d="M18.957,13.289h-.65v-.644a.644.644,0,1,0-1.289,0v.644H11.866v-.644a.644.644,0,1,0-1.289,0v.644H9.932A1.933,1.933,0,0,0,8,15.221v6.443A1.933,1.933,0,0,0,9.933,23.6h9.024a1.933,1.933,0,0,0,1.933-1.933V15.221A1.933,1.933,0,0,0,18.957,13.289ZM19.6,16.51H9.289V15.221a.644.644,0,0,1,.644-.644h.644v.644a.644.644,0,1,0,1.289,0v-.644h5.154v.644a.644.644,0,0,0,1.289,0v-.644h.647a.644.644,0,0,1,.644.644Z" transform="translate(-8 -12)" fill="#b1b1b1"/>
</svg>
